<svg id="Layer_1" data-name="Layer 1" xmlns="http://www.w3.org/2000/svg" xmlns:xlink="http://www.w3.org/1999/xlink" width="629.16" height="595.1" viewBox="0 0 629.16 595.1">
  <defs>
    <linearGradient id="linear-gradient" x1="642.87" y1="413.51" x2="663.4" y2="523.98" gradientTransform="matrix(1, 0, 0, -1, -97.38, 596.1)" gradientUnits="userSpaceOnUse">
      <stop offset="0" stop-color="#ecc4d7"/>
      <stop offset="0.42" stop-color="#efd4d1"/>
      <stop offset="1" stop-color="#f2eac9"/>
    </linearGradient>
    <linearGradient id="linear-gradient-2" x1="408.77" y1="275.14" x2="451" y2="275.14" gradientTransform="matrix(1, 0, 0, -1, -97.38, 596.1)" gradientUnits="userSpaceOnUse">
      <stop offset="0.01" stop-color="#fff" stop-opacity="0"/>
      <stop offset="0.13" stop-color="#fff" stop-opacity="0.17"/>
      <stop offset="0.37" stop-color="#fff" stop-opacity="0.46"/>
      <stop offset="0.59" stop-color="#fff" stop-opacity="0.68"/>
      <stop offset="0.77" stop-color="#fff" stop-opacity="0.85"/>
      <stop offset="0.91" stop-color="#fff" stop-opacity="0.95"/>
      <stop offset="1" stop-color="#fff" stop-opacity="0.99"/>
    </linearGradient>
    <linearGradient id="linear-gradient-3" x1="474.64" y1="304.07" x2="433.37" y2="305.32" gradientTransform="matrix(1, 0, 0, -1, 0.03, 598)" xlink:href="#linear-gradient-2"/>
    <linearGradient id="linear-gradient-4" x1="513.21" y1="482.09" x2="584.95" y2="427.43" xlink:href="#linear-gradient"/>
    <linearGradient id="linear-gradient-5" x1="549.61" y1="507.14" x2="473.97" y2="480.83" gradientTransform="matrix(1, 0, 0, -1, -97.38, 596.1)" gradientUnits="userSpaceOnUse">
      <stop offset="0" stop-color="#183866"/>
      <stop offset="1" stop-color="#1a7fc1"/>
    </linearGradient>
    <linearGradient id="linear-gradient-6" x1="476.53" y1="532.97" x2="545.24" y2="532.97" xlink:href="#linear-gradient"/>
    <linearGradient id="linear-gradient-7" x1="488.56" y1="531.68" x2="478.74" y2="528.26" xlink:href="#linear-gradient-5"/>
    <linearGradient id="linear-gradient-8" x1="437.45" y1="404.57" x2="508.78" y2="418.46" xlink:href="#linear-gradient-2"/>
    <linearGradient id="linear-gradient-9" x1="541.76" y1="382.38" x2="478.69" y2="416.54" xlink:href="#linear-gradient-2"/>
    <linearGradient id="linear-gradient-10" x1="319.34" y1="383.55" x2="345.23" y2="385.82" gradientTransform="matrix(1, 0, 0, -1, 0.03, 598)" xlink:href="#linear-gradient-2"/>
    <linearGradient id="linear-gradient-11" x1="439.74" y1="287.1" x2="447.06" y2="326.46" xlink:href="#linear-gradient"/>
    <linearGradient id="linear-gradient-12" x1="445.78" y1="330.95" x2="443.31" y2="253.35" xlink:href="#linear-gradient-2"/>
    <linearGradient id="linear-gradient-13" x1="534.55" y1="345.03" x2="528.77" y2="239.36" xlink:href="#linear-gradient-2"/>
    <linearGradient id="linear-gradient-14" x1="343.29" y1="167.22" x2="351.26" y2="179.33" gradientUnits="userSpaceOnUse">
      <stop offset="0" stop-opacity="0"/>
      <stop offset="0.99"/>
    </linearGradient>
    <linearGradient id="linear-gradient-15" x1="380.72" y1="168.34" x2="385.51" y2="179.41" xlink:href="#linear-gradient-14"/>
    <linearGradient id="linear-gradient-16" x1="421.09" y1="203.31" x2="438.59" y2="203.31" xlink:href="#linear-gradient-14"/>
    <linearGradient id="linear-gradient-17" x1="432.59" y1="189.59" x2="431.04" y2="225.63" gradientTransform="translate(267.23 -247.35) rotate(45)" xlink:href="#linear-gradient-14"/>
    <linearGradient id="linear-gradient-18" x1="332.73" y1="272.02" x2="339.97" y2="193.32" gradientTransform="matrix(1, 0, 0, -1, -97.38, 596.1)" xlink:href="#linear-gradient-14"/>
    <linearGradient id="linear-gradient-19" x1="201.64" y1="299.19" x2="195.14" y2="96.84" gradientTransform="matrix(1, 0, 0, -1, -97.38, 596.1)" xlink:href="#linear-gradient-14"/>
    <linearGradient id="linear-gradient-20" x1="160.91" y1="187.18" x2="536.1" y2="192.43" gradientTransform="matrix(1, 0, 0, -1, 0.03, 598)" xlink:href="#linear-gradient-14"/>
    <linearGradient id="linear-gradient-21" x1="431.17" y1="35.93" x2="445.9" y2="35.93" xlink:href="#linear-gradient"/>
    <linearGradient id="linear-gradient-22" x1="4554.04" y1="31.51" x2="4569.24" y2="31.51" gradientTransform="translate(4971.78 596.1) rotate(180)" xlink:href="#linear-gradient"/>
    <linearGradient id="linear-gradient-23" x1="396.44" y1="21.68" x2="445.9" y2="21.68" gradientTransform="matrix(1, 0, 0, -1, -97.38, 596.1)" xlink:href="#linear-gradient-14"/>
    <linearGradient id="linear-gradient-24" x1="497.35" y1="17.08" x2="545.94" y2="17.08" gradientTransform="matrix(1, 0, 0, -1, -97.38, 596.1)" xlink:href="#linear-gradient-14"/>
    <linearGradient id="linear-gradient-25" x1="245.69" y1="314.4" x2="255.82" y2="185.89" gradientTransform="matrix(1, 0, 0, -1, -97.38, 596.1)" xlink:href="#linear-gradient-14"/>
    <linearGradient id="linear-gradient-26" x1="317.4" y1="328.67" x2="92.66" y2="92.54" gradientTransform="matrix(1, 0, 0, -1, -97.38, 596.1)" xlink:href="#linear-gradient-14"/>
  </defs>
  <title>34. Doctor</title>
  <path d="M231.12,57.64c-25.4,24.19-38.62,58.81-63.21,83.82C123,187.1,45.28,196.1,13.29,251.6c-16,27.63-16.62,62.3-7,92.69s28.78,57,50.49,80.38c38.64,41.59,86.68,74.7,140,94.13,25.3,9.22,52.2,15.42,79,13.32,31.66-2.47,61.32-16.24,92.55-22,32.94-6,67.11-3,99.91-9.84s66.45-27.39,73.35-60.17c4.29-20.4-2.52-42,2.1-62.29,8.08-35.49,46.54-54.25,67.68-83.89a96.29,96.29,0,0,0,17.72-52.66c.6-20.1-5.81-41.09-20.53-54.78-11.13-10.34-25.83-15.71-39.92-21.38C503.62,139,450.19,99.32,393.38,59.49,344.62,25.28,278.94,12.1,231.12,57.64Z" transform="translate(0.03 0)" fill="#00203f" opacity="0.18" style="isolation: isolate"/>
  <polygon points="321.59 374.33 331.9 551.96 348.55 553.24 386.5 369.14 402.57 555.59 419.22 555.59 448.59 377.1 386.5 341.98 321.59 374.33" fill="#25233a"/>
  <path d="M539.22,144.42s3.18-7,1.07-19.72S552,94.19,552,94.19a6.05,6.05,0,0,1,3.07,6.15l9.86-25.67s4.86-2.35,9.7,11.31,1.07,25.6-.29,32.17c-2.27,11.06-12.24,19.2-12.81,24.4a86.7,86.7,0,0,1-2.59,12.13Z" transform="translate(0.03 0)" fill="url(#linear-gradient)"/>
  <path d="M386.17,104.1s-44-.11-47.74,2.37S325,115.05,318.7,130.78,280,233,280,233s-2.59,8.94,6.07,17.91,36.09,41.35,36.09,41.35L311.4,373.9s68,5.13,76-15.37c0,0,24.81,14.09,61.2,18.58l12,4.56,1-154.19a44.09,44.09,0,0,0,41.28,15.41c26.9-4.16,52.49-38.44,64-81.81l-37.13-19.6s-14.09,55.76-37.79,46.1c-16.53-6.75-16.52-32.14-18.38-50a22.88,22.88,0,0,0-17.48-19.89l-31.45-7.47Z" transform="translate(0.03 0)" fill="#fff"/>
  <path d="M353.62,267.58l-4.89,106.14s-30.47,1.25-37.34.18l10.75-81.62Z" transform="translate(0.03 0)" fill="#00203f"/>
  <path d="M353.62,267.58l-4.89,106.14s-30.47,1.25-37.34.18l10.75-81.62Z" transform="translate(0.03 0)" fill="url(#linear-gradient-2)"/>
  <polygon points="461.63 227.48 451.67 205.06 438.59 375.59 460.64 381.67 461.63 227.48" fill="#00203f"/>
  <polygon points="461.63 227.48 451.67 205.06 438.59 375.59 460.64 381.67 461.63 227.48" fill="url(#linear-gradient-3)"/>
  <path d="M384.09,120.9s24.25,16.52,37.76,4.85L386.09,276.91Z" transform="translate(0.03 0)" fill="#25233a"/>
  <path d="M390.2,80.74s-11.25,43-3.25,52.35,33,10.14,34.9-7.34S432,84.9,432,84.9Z" transform="translate(0.03 0)" fill="url(#linear-gradient-4)"/>
  <path d="M389,91.25s9.57,24,17.82,27.81,15.43,1,16.47-2.35,5.35-21.32,5.35-21.32Z" transform="translate(0.03 0)" opacity="0.19" fill="url(#linear-gradient-5)" style="isolation: isolate"/>
  <path d="M447.86,57.1c0,27.29-15.38,49.41-34.36,49.41S379.15,84.36,379.15,57.1,396,19.74,415,19.74,447.86,29.79,447.86,57.1Z" transform="translate(0.03 0)" fill="url(#linear-gradient-6)"/>
  <path d="M461.19,41.42c-1.29,7.45-5.47,14.11-10.38,19.86a14.53,14.53,0,0,0-.13-1.48c-.5-5.48-1.36-11-3.73-15.93-2.59-5.4-7.25-10.09-13.1-11.34-3.9-.84-8.09-.14-12.12.07-3.3.16-6.49,0-9.33-1.62a28.6,28.6,0,0,0-4.13-2.45c-8.23-3-13.75,11.76-14.08,17.41-.38,6.52.68,13.32-1.62,19.45-2-.78-2.73-3.17-3.48-5.2s-2.32-4.27-4.45-3.93a3.82,3.82,0,0,0-2.49,1.91c-1.67,2.71-1.25,6.24-.08,9.2s3,5.64,4.13,8.62a19.72,19.72,0,0,1-.66,15.26A57.25,57.25,0,0,1,375.73,70l-5,4.35.33-18.87c.27-14.62,1-30.54,10.52-41.62,7.3-8.51,18.68-12.57,29.84-13.59C423.81-.86,436.88,1.57,446.9,9S463.32,29.15,461.19,41.42Z" transform="translate(0.03 0)" fill="#3f3d56"/>
  <path d="M456.19,41.48c-3.7,12.39-5.51,18.32-5.51,18.32-.5-5.48-1.36-11-3.73-15.93-2.59-5.4-7.25-10.09-13.1-11.34-3.9-.84-8.09-.14-12.12.07,0,0,15-7.91,21.66-9.91S459.89,29.1,456.19,41.48Z" transform="translate(0.03 0)" fill="#25233a"/>
  <path d="M389,69s-3.42-1.39-2.35-4.06.11-4.1-1-4.45-4.36,2.42-1,8.51S389,69,389,69Z" transform="translate(0.03 0)" opacity="0.19" fill="url(#linear-gradient-7)" style="isolation: isolate"/>
  <path d="M381.36,98.54l-10,3.47a5.18,5.18,0,0,0-3.38,3.9l-8.9,46,17.2,2.74L367.34,167l18.71,100.56L384.7,100.9a2.54,2.54,0,0,0-2.59-2.49A2.68,2.68,0,0,0,381.36,98.54Z" transform="translate(0.03 0)" fill="#00203f"/>
  <path d="M424.68,110.18l10.69,3.9,3.19,47H423.27l6.53,13.24L386.09,276.91S419.49,145.57,424.68,110.18Z" transform="translate(0.03 0)" fill="#00203f"/>
  <path d="M381.36,98.54l-10,3.47a5.18,5.18,0,0,0-3.38,3.9l-8.9,46,17.2,2.74L367.34,167l18.71,100.56L384.7,100.9a2.54,2.54,0,0,0-2.59-2.49A2.68,2.68,0,0,0,381.36,98.54Z" transform="translate(0.03 0)" fill="url(#linear-gradient-8)"/>
  <path d="M424.68,110.18l10.69,3.9,3.19,47H423.27l6.53,13.24L386.09,276.91S419.49,145.57,424.68,110.18Z" transform="translate(0.03 0)" fill="url(#linear-gradient-9)"/>
  <polygon points="337.61 156.72 322.22 236.54 353.67 267.58 337.61 156.72" fill="#00203f"/>
  <polygon points="337.61 156.72 322.22 236.54 353.67 267.58 347.78 226.92 337.61 156.72" fill="url(#linear-gradient-10)"/>
  <polygon points="353.67 267.58 330.84 296.02 322.18 292.27 350.95 264.89 353.67 267.58" fill="#25233a"/>
  <path d="M351.08,270.76s6.9,15,8,23.65L330.77,296Z" transform="translate(0.03 0)" fill="url(#linear-gradient-11)"/>
  <path d="M327.75,296l44.87-1.61s-3.24,46-3.52,51.1-48.69,8.59-48.69,8.59Z" transform="translate(0.03 0)" fill="#fff"/>
  <path d="M457.7,297.68l-44.17-3s-4.79,45.68-4.51,50.81,45.18,11.67,45.18,11.67Z" transform="translate(0.03 0)" fill="#fff"/>
  <path d="M327.75,296l44.87-1.61s-3.24,46-3.52,51.1-48.69,8.59-48.69,8.59Z" transform="translate(0.03 0)" fill="#00203f"/>
  <path d="M327.75,296l44.87-1.61s-3.24,46-3.52,51.1-48.69,8.59-48.69,8.59Z" transform="translate(0.03 0)" fill="url(#linear-gradient-12)"/>
  <path d="M457.7,297.68l-44.17-3s-4.79,45.68-4.51,50.81,45.18,11.67,45.18,11.67Z" transform="translate(0.03 0)" fill="#00203f"/>
  <path d="M457.7,297.68l-44.17-3s-4.79,45.68-4.51,50.81,45.18,11.67,45.18,11.67Z" transform="translate(0.03 0)" fill="url(#linear-gradient-13)"/>
  <polygon points="533.11 143.22 535.37 139.61 565.82 156.72 566.95 161.07 533.11 143.22" fill="#25233a"/>
  <path d="M365.17,132.31a1.51,1.51,0,0,1-1.51-1.5c-.23-15.07,6.07-24.28,11.4-29.36A34.13,34.13,0,0,1,386.9,94a1.51,1.51,0,0,1,.93,2.88c-.88.29-21.54,7.34-21.15,33.94a1.5,1.5,0,0,1-1.49,1.53Z" transform="translate(0.03 0)" fill="#25233a"/>
  <path d="M382.25,169.81h-.12a1.51,1.51,0,0,1-1.39-1.63c1.26-16.09-2.48-28.52-10-33.25a11.41,11.41,0,0,0-12.27-.07c-9.74,5.68-12.62,21-12.07,33.37a1.51,1.51,0,1,1-3,.14c-.77-17.22,4.3-30.73,13.57-36.13a14.46,14.46,0,0,1,15.4.13c8.62,5.41,12.78,18.55,11.41,36A1.51,1.51,0,0,1,382.25,169.81Z" transform="translate(0.03 0)" fill="#25233a"/>
  <path d="M349.62,170a4.49,4.49,0,1,1-4.5-4.48h0A4.49,4.49,0,0,1,349.62,170Z" transform="translate(0.03 0)" fill="#00203f"/>
  <path d="M386.17,170.55a4.49,4.49,0,1,1-4.49-4.49h0A4.49,4.49,0,0,1,386.17,170.55Z" transform="translate(0.03 0)" fill="#00203f"/>
  <path d="M349.62,170a4.49,4.49,0,1,1-4.5-4.48h0A4.49,4.49,0,0,1,349.62,170Z" transform="translate(0.03 0)" fill="url(#linear-gradient-14)"/>
  <path d="M386.17,170.55a4.49,4.49,0,1,1-4.49-4.49h0A4.49,4.49,0,0,1,386.17,170.55Z" transform="translate(0.03 0)" fill="url(#linear-gradient-15)"/>
  <path d="M432,200.41a1.52,1.52,0,0,1-1.37-2.17l8.5-17.84c19-58.61-13-74.78-13.3-74.93a1.52,1.52,0,0,1,1.32-2.74c.36.18,9,4.42,15.1,16.37,5.58,10.87,10.06,30.51-.27,62.33l-.07.18-8.54,17.93A1.51,1.51,0,0,1,432,200.41ZM440.58,181h0Z" transform="translate(0.03 0)" fill="#25233a"/>
  <circle cx="429.84" cy="203.31" r="8.75" fill="#00203f"/>
  <circle cx="429.84" cy="203.31" r="8.75" fill="url(#linear-gradient-16)"/>
  <circle cx="430.21" cy="202.53" r="6.16" transform="translate(-17.17 363.52) rotate(-45)" fill="#00203f"/>
  <circle cx="432.19" cy="198.89" r="6.16" transform="translate(-14.02 363.86) rotate(-45)" fill="#00203f"/>
  <circle cx="432.19" cy="198.89" r="6.16" transform="translate(-14.02 363.86) rotate(-45)" fill="url(#linear-gradient-17)"/>
  <path d="M267.62,341H141.75a5.83,5.83,0,0,1-5.83-5.83v0h0a5.83,5.83,0,0,1,5.83-5.83H267.62a5.83,5.83,0,0,1,5.83,5.83h0a5.83,5.83,0,0,1-5.8,5.86Z" transform="translate(0.03 0)" fill="#00203f"/>
  <path d="M205.62,335.1a5.83,5.83,0,0,1-5.81,5.83H.62V329.3H199.81A5.84,5.84,0,0,1,205.62,335.1Z" transform="translate(0.03 0)" fill="#00203f"/>
  <path d="M273.43,335.1a5.84,5.84,0,0,1-5.83,5.83H199.81a5.83,5.83,0,0,0,0-11.66h67.81A5.83,5.83,0,0,1,273.43,335.1Z" transform="translate(0.03 0)" fill="url(#linear-gradient-18)"/>
  <path d="M205.62,335.1a5.83,5.83,0,0,1-5.81,5.83H.62V329.3H199.81A5.84,5.84,0,0,1,205.62,335.1Z" transform="translate(0.03 0)" fill="url(#linear-gradient-19)"/>
  <rect x="141.78" y="340.96" width="123.78" height="138.53" fill="#00203f"/>
  <rect x="141.78" y="340.96" width="123.78" height="138.53" fill="url(#linear-gradient-20)"/>
  <rect x="0.66" y="340.96" width="205.01" height="138.53" fill="#00203f"/>
  <path d="M333.79,559.65l.43-7.69,14.3,1.28-1.9,11.53S339.55,575.66,333.79,559.65Z" transform="translate(0.03 0)" fill="url(#linear-gradient-21)"/>
  <path d="M417.74,565.91l-.54-10.32-14.66-.14v12.94S412,581.92,417.74,565.91Z" transform="translate(0.03 0)" fill="url(#linear-gradient-22)"/>
  <path d="M333.79,559.65s-27,13.31-30.18,18.15a40,40,0,0,0-4.55,11.38s16.51.29,26.76-3.13,22.7-7.12,22.7-7.12V561.28s-.21-2.06-3.2.29-6,4.55-8.65,3S335.39,559.54,333.79,559.65Z" transform="translate(0.03 0)" fill="#00203f"/>
  <path d="M418.44,563.67s23.63,14.69,26.4,19.74a40.09,40.09,0,0,1,3.72,11.69s-16.49-.91-26.46-5.06S400,581.29,400,581.29l1.28-17.6s.36-2,3.17.51,8,5.52,10.79,4.19S416.85,563.44,418.44,563.67Z" transform="translate(0.03 0)" fill="#00203f"/>
  <path d="M333.79,559.65s-27,13.31-30.18,18.15a40,40,0,0,0-4.55,11.38s16.51.29,26.76-3.13,22.7-7.12,22.7-7.12V561.28s-.21-2.06-3.2.29-6,4.55-8.65,3S335.39,559.54,333.79,559.65Z" transform="translate(0.03 0)" fill="url(#linear-gradient-23)"/>
  <path d="M418.44,563.67s23.63,14.69,26.4,19.74a40.09,40.09,0,0,1,3.72,11.69s-16.49-.91-26.46-5.06S400,581.29,400,581.29l1.28-17.6s.36-2,3.17.51,8,5.52,10.79,4.19S416.85,563.44,418.44,563.67Z" transform="translate(0.03 0)" fill="url(#linear-gradient-24)"/>
  <path d="M206.45,329.1v.19H96.89s16-52.63,64.68-51c1,0,1.88.08,2.78.15h0C209.38,281.73,207.12,324.7,206.45,329.1Z" transform="translate(0.03 0)" fill="#00203f"/>
  <path d="M206.45,329.1h-28l.21-2.77s8.54-41-14.3-47.85C209.38,281.73,207.12,324.7,206.45,329.1Z" transform="translate(0.03 0)" fill="#00203f"/>
  <path d="M206.45,329.1v.19H96.89s16-52.63,64.68-51c1,0,1.88.08,2.78.15h0C209.38,281.73,207.12,324.7,206.45,329.1Z" transform="translate(0.03 0)" fill="url(#linear-gradient-25)"/>
  <path d="M206.45,329.1h-28l.21-2.77s8.54-41-14.3-47.85C209.38,281.73,207.12,324.7,206.45,329.1Z" transform="translate(0.03 0)" fill="url(#linear-gradient-26)"/>
</svg>
