<svg id="Layer_1" data-name="Layer 1" xmlns="http://www.w3.org/2000/svg" viewBox="0 0 400 300"><title>#45 swimming</title><path d="M92.89,104.09A174.65,174.65,0,0,1,79.3,121.38c-11,12.32-28,38.68-12.9,72.31,21.12,47.09,75.27,26.47,100.25,33.53,51.49,14.56,81.67,2.31,115.21-14.09s66.54-6.26,67.78-65.75S307.82,81.07,285,92s-43.5,14.57-70.82-4.31C188.49,69.89,126,55.82,92.89,104.09Z" fill="#e6e6e6"/><path d="M131.84,149.14,97.92,154.5l-47,2.33s-2-4.64-6.31-4.07S41.09,164,36.27,165.07s-4.87,7.91-.79,7.6,6.78-6.57,12.37-7.14l91.24,8.91Z" fill="#f4a28c"/><path d="M131.84,149.14,97.92,154.5l-47,2.33s-2-4.64-6.31-4.07S41.09,164,36.27,165.07s-4.87,7.91-.79,7.6,6.78-6.57,12.37-7.14l91.24,8.91Z" opacity="0.08"/><path d="M232.44,154.61s46,.27,77.34,4.29,53.24,14.41,52.37,21.93-9.5.16-9.5.16-.91,5.43-3.2,3.38-2.59-5.81-6.62-7.23-56.73-6.94-104.22,6.17Z" fill="#f4a28c"/><path d="M232.44,154.61s46,.27,77.34,4.29,53.24,14.41,52.37,21.93-9.5.16-9.5.16-.91,5.43-3.2,3.38-2.59-5.81-6.62-7.23-56.73-6.94-104.22,6.17Z" opacity="0.08"/><path d="M242.41,147.22s-1.49-24.48-37.81-23.54-16.4,16.27-63.21,8l-2.3,42.72S219.51,198.92,248,178.7,242.41,147.22,242.41,147.22Z" fill="#00203f"/><path d="M241.86,148.69a48.63,48.63,0,0,1-2,5.29c-1.07,2.36-2,6.17,1.3,8.65,5.13,3.82,11-4.36,11-4.36s7.67-6.61,2.13-10.77C249.34,143.76,244.52,140.47,241.86,148.69Z" fill="#f4a28c"/><path d="M251.67,158.46s1.66-2.56,4-1.28S254.52,163.07,251.67,158.46Z" fill="#f4a28c"/><path d="M240.71,154.47s2.11-2.19.34-4.15S235.57,152.74,240.71,154.47Z" fill="#f4a28c"/><path d="M214.41,157.48s-21.73,8.55-33.73-6.66-40.5,3.43-40.5,3.43l1.21-22.53s26.93,5.83,35.9-.79c0,0,8-5.57,17.16-6.47S214.41,157.48,214.41,157.48Z" opacity="0.08"/><path d="M242.41,147.22s10.22.93,13.05,7c0,0,9.21-11.28-.26-15.63S242.41,147.22,242.41,147.22Z" fill="#24285b"/><path d="M200.71,152.19a10,10,0,0,1-1.46-7.22c1.12-7,2.36-28.33-34-29.39-32.33-1-43.73-5.8-43.73-5.8l2-5S153.16,99.6,167.75,98c17.18-1.84,59.42,1.72,65.3,35.5,2.08,12-6.51,23.4-18.64,23.95l-1.17,0C206.11,157.51,202.52,154.86,200.71,152.19Z" fill="#f4a28c"/><rect x="340.26" y="164.39" width="8.25" height="14.25" transform="translate(51.65 -78.13) rotate(13.98)" fill="#ffd200"/><path d="M124,110.42s-10.82-2.12-10.13-7.34,4.26,1.28,6.94-.11-1.25-4,3-4.1,3.77,5.71,3.77,5.71Z" fill="#f4a28c"/><polygon points="101.93 153.87 103.71 172.83 139.09 174.44 137.19 153.85 101.93 153.87" fill="#24285b"/><path d="M141.39,131.72s-11.78-7.45-21-3.22-23.64,36.9-46.66,5.13l-7.14,2.1s13.38,43,47.29,19.55c5.91-4.07,14.23,1.53,18,7.61l7.23,11.55Z" fill="#f4a28c"/><path d="M74.73,135.31s3.19-3.33,1.16-6.77-10.73,1-13.36-2.64-8.41-1.26-6.68,2.06,7.95,3.35,10.44,7.85Z" fill="#f4a28c"/><path d="M141.39,131.72a24.69,24.69,0,0,0-17.5-5.61c-10.82.68-14.49,15.91-22.15,16.21l5,17.25s16.54-2.49,20.37,2.35,11.94,12.52,11.94,12.52Z" fill="#24285b"/><circle cx="245.64" cy="150.8" r="3.7" fill="#ffd200"/><circle cx="252.02" cy="154.25" r="3.7" fill="#ffd200"/><circle cx="268.67" cy="142.33" r="3.09" fill="#c9c9c9"/><circle cx="290.61" cy="113.51" r="3.09" fill="#c9c9c9"/><circle cx="290.61" cy="134" r="6.42" fill="#c9c9c9"/><circle cx="270.11" cy="123.65" r="8.58" fill="#c9c9c9"/></svg>