<svg id="Layer_2" data-name="Layer 2" xmlns="http://www.w3.org/2000/svg" xmlns:xlink="http://www.w3.org/1999/xlink" viewBox="0 0 400 300"><defs><linearGradient id="linear-gradient" x1="163.74" y1="261.93" x2="186.92" y2="237.29" gradientUnits="userSpaceOnUse"><stop offset="0" stop-color="#ff734d" stop-opacity="0"/><stop offset="1" stop-color="#42210b"/></linearGradient><linearGradient id="linear-gradient-2" x1="58.65" y1="200.38" x2="81.82" y2="175.74" xlink:href="#linear-gradient"/><linearGradient id="linear-gradient-3" x1="248.55" y1="236.43" x2="269.61" y2="214.03" xlink:href="#linear-gradient"/></defs><title>PP</title><path d="M196.24,288.6,23.74,186.65c-5.49-3.08-10.2-8.15-4.85-11.46L192,75.41c2.6-1.61,6.54-2.66,9.18-1.13L382.28,179.37c5.49,3.19,6.48,12.1,1,15.29L219,288.44A22.94,22.94,0,0,1,196.24,288.6Z" fill="#bc4824"/><path d="M189.15,277.81s22.69-26.24,27.74-31.15c-1.85-1.33-30.55-22.11-32.34-23.52-8.29,3.43-37.76,17.35-45.39,22C143.8,247.61,184.4,275.6,189.15,277.81Z" opacity="0.41" fill="url(#linear-gradient)"/><path d="M84.05,216.26s22.69-26.24,27.74-31.15c-1.85-1.33-30.55-22.11-32.34-23.52-8.29,3.43-37.76,17.35-45.39,22C38.71,186.06,79.3,214,84.05,216.26Z" opacity="0.41" fill="url(#linear-gradient-2)"/><path d="M270.93,248.87s26.89-15.75,31.94-20.66c-1.85-1.33-34.75-32.61-36.55-34-8.29,3.43-37.76,17.35-45.39,22C225.58,218.67,266.18,246.66,270.93,248.87Z" opacity="0.41" fill="url(#linear-gradient-3)"/><path d="M242.48,203.51s-.7,4.69,1.25,5.93,5.75,3.36,10.36,1.33,9-8.23,12-8.41,6.06-2.71,6.79-3.66-.08-3.88-.08-3.88" fill="#1e1e1e"/><path d="M253.8,192.41l-10.57,9.47a2.19,2.19,0,0,0-.17,3.15,10.25,10.25,0,0,0,8.06,3.43c6.19-.36,11.53-7.77,14.08-8.5s7.16-2.18,7.65-3.76-1.82-7.28-1.82-7.28" fill="#c62626"/><path d="M288.17,223.15s-1.12,10.46,7.8,10.73,8-10.3,8-10.3" fill="#1e1e1e"/><path d="M288,209.47c0,.78-.52,17.23,1.17,19.18s9.66,2.87,13.18,0,0-21.14,0-21.14" fill="#c62626"/><path d="M257.07,119.39s-8.13,19.38-8.75,27.82,4.38,45.32,4.38,45.32,9.22,4.69,18.6-3c0,0-6.1-32.19-5-34.54s11.9-21.88,12.51-21.72.14,27.51.93,30.79,6.1,47,6.1,47a18.19,18.19,0,0,0,20-1.25s-5.16-38.45-5-40.63,3.89-33.44,2.42-43.05S257.07,119.39,257.07,119.39Z" fill="#00203f"/><path d="M257.07,119.39s-8.13,19.38-8.75,27.82,4.38,45.32,4.38,45.32,9.22,4.69,18.6-3c0,0-6.1-32.19-5-34.54s11.9-21.88,12.51-21.72.14,27.51.93,30.79,6.1,47,6.1,47a18.19,18.19,0,0,0,20-1.25s-5.16-38.45-5-40.63,3.89-33.44,2.42-43.05S257.07,119.39,257.07,119.39Z" fill="#1b717f" opacity="0.36"/><path d="M303.25,111.93V94.25L299,69.52l-39.69,3.06s-.67,24.59-1,25.45c-.16.41-1,5.93-1.92,11.64A67.58,67.58,0,0,0,279.15,115C287.17,115.51,295.9,115.56,303.25,111.93Z" fill="#00203f"/><path d="M280.32,124.83c-8.78-.6-17.46-2-25.42-5.73l-.52,3.48s22.43,12.36,48.88,3.61v-4.91C296.4,125.4,288.31,125.38,280.32,124.83Z" fill="#00203f"/><path d="M303.25,117.7v-2.48c-7.5,3.21-16,3.28-24.1,2.77a71.78,71.78,0,0,1-23.29-5.27l-.5,3.28c7.28,3.65,15.2,5.05,23.3,5.7C287,122.38,296.22,123,303.25,117.7Z" fill="#00203f"/><path d="M278.66,121.71c-8.09-.65-16-2.05-23.3-5.7l-.47,3.09c8,3.76,16.64,5.12,25.42,5.73,8,.55,16.08.57,22.93-3.55V117.7C296.22,123,287,122.38,278.66,121.71Z" fill="#fed929"/><path d="M303.25,115.23v-3.29c-7.35,3.63-16.08,3.58-24.1,3.06a67.58,67.58,0,0,1-22.82-5.33l-.47,3.06A71.78,71.78,0,0,0,279.15,118C287.21,118.51,295.75,118.44,303.25,115.23Z" fill="#fed929"/><path d="M240.73,90.89c-.51,4.46,1.79,8.8,7.65,7.91a8.5,8.5,0,0,0,4.26-2.47,75,75,0,0,0-8.51-10.59C242.53,87,241,88.81,240.73,90.89Z" fill="#00203f"/><path d="M255.42,65.61c2.29.19,4.57.41,6.84.71a1.63,1.63,0,0,1,1.41,1.53l.83-4.39c-2.77-.39-5.54-.72-8.32-1C255.89,63.63,255.64,64.67,255.42,65.61Z" fill="#00203f"/><path d="M262.27,69.32c-2.49-.33-5-.57-7.48-.76-.58,2.89-.76,4.18-1.43,5.11s-2.47,4.14-3.79,6.55a72.33,72.33,0,0,1,8.1,9.64,57.84,57.84,0,0,0,2.83-5.1l3-16A1.15,1.15,0,0,1,262.27,69.32Z" fill="#00203f"/><path d="M247.87,83.36s-.5.24-1.23.66a78.62,78.62,0,0,1,8.08,10c.39-.49.77-1,1.14-1.5A69.17,69.17,0,0,0,248.07,83Z" fill="#00203f"/><path d="M265.61,57.6l2.47-15.66s-6,.61-10,13.75c-.42,1.4-.79,2.67-1.11,3.85,2.7.29,5.4.62,8.09,1Z" fill="#00203f"/><path d="M257,59.54c-.29,1.05-.55,2-.78,2.91,2.78.29,5.55.62,8.32,1l.55-2.93C262.36,60.16,259.67,59.83,257,59.54Z" fill="#fed929"/><path d="M262.27,66.32c-2.28-.3-4.56-.52-6.84-.71-.26,1.14-.46,2.11-.63,3,2.5.2,5,.43,7.48.76a1.15,1.15,0,0,0,1.24-.57l.17-.9A1.63,1.63,0,0,0,262.27,66.32Z" fill="#fed929"/><path d="M244.13,85.74a75,75,0,0,1,8.51,10.59,23.28,23.28,0,0,0,2.08-2.27,78.62,78.62,0,0,0-8.08-10A19.71,19.71,0,0,0,244.13,85.74Z" fill="#fed929"/><path d="M248.07,83a69.17,69.17,0,0,1,7.79,9.58c.66-.91,1.26-1.83,1.81-2.71a72.33,72.33,0,0,0-8.1-9.64C248.91,81.43,248.35,82.47,248.07,83Z" fill="#fed929"/><path d="M267,45.1s.6-2.06,6.25-1.83,15.27,2.58,16.06,5.87S281.07,58.65,280.4,60s-3.66,19.3-3.66,19.3L268.16,77,267,60.64" fill="#00203f"/><path d="M289.35,49.15s-5.92,7.31-11,7.86l-1.64,22.26s12.5,2.08,18.64,0S300.48,48.28,289.35,49.15Z" fill="#383838"/><path d="M270.45,44.31s-3.1,3.89-2.75,5.87a12.36,12.36,0,0,0,1.36,3.68L268.16,77s-8.12-3.07-8.89-4.39l.44-9.22S262,47.38,267,45.1Z" fill="#383838"/><path d="M274,45.93a14.18,14.18,0,0,1,.75,3.92c-.15,1.13-2,6.18-1.28,6.49s3.17-5.43,4.75-6.34,6.67-4.84,6.42-4.91-1.42-3.24-1.77-3.16-2.35,1-2.35,1" fill="#e298a0"/><path d="M262.59,29.57s.43,10,2.28,12.9,11.31,2.63,11.31,2.63S267.84,27.74,262.59,29.57Z" fill="#fed929"/><path d="M264.87,32.69s.43,8.12,2.18,10.59,7.18,2.56,8.68,2.66-2.78-10.26-2.78-10.26S266.93,31,264.87,32.69Z" fill="#383838"/><path d="M267.7,31.1s0,15,6.39,16.09,9.46-3.44,9.82-5.89.74-7,.74-7Z" fill="#fcbfc4"/><path d="M283.24,36.25s-3.56,15.11,11.54,17.56a2.88,2.88,0,0,0,3.44-2.33c.74-2.95-1-18.79-1-18.79" fill="#fed929"/><path d="M269.51,17.55s-6.63,5.89-7.25,7.86.61,8.27,10.68,11.81,16.7-.14,21.86-2.48,8.11-6.26,7.49-8.47S287.68,16.2,287.68,16.2" fill="#1d1f1e"/><path d="M269.51,16s-6.63,5.89-7.25,7.86.61,8.27,10.68,11.81,16.7-.14,21.86-2.48,8.11-6.26,7.49-8.47-14.61-10.07-14.61-10.07" fill="#383838"/><path d="M267,24.53s-.44-15.82,13.18-14.94,13.53,12.65,13.53,15.82-9.7,7.69-17.16,6.28S267,24.53,267,24.53Z" fill="#1d1f1e"/><ellipse cx="272.45" cy="22.99" rx="1.71" ry="2.42" fill="#f6f6f6"/><path d="M275.84,27.33c-1.92,1-5.07-1-5.92-2.69-.59-1.15-2.31-.13-1.73,1,1.4,2.72,5.76,5,8.66,3.41C278,28.45,277,26.72,275.84,27.33Z" fill="#f6f6f6"/><path d="M275.88,19A10.18,10.18,0,0,0,273.56,17a6.86,6.86,0,0,0-3.26-.27c-1.28,0-1.29,2,0,2a5.08,5.08,0,0,1,2.49.13,10.68,10.68,0,0,1,1.67,1.62C275.38,21.36,276.79,19.94,275.88,19Z" fill="#f6f6f6"/><path d="M263.68,67.85l-.17.9A1.58,1.58,0,0,0,263.68,67.85Z" fill="#fed929"/><polyline points="241.17 87.93 241.84 104.25 236.15 102.55 235.62 88.65" fill="#383838"/><path d="M214,94.46l-11.43,8.27s-.37,3.33,2.59,3.79l13-6.37s3.68-.93,3.59-3.24-3.05-5.55-3.05-5.55Z" fill="#c3c3c3"/><path d="M343.68,114.79c-11.51,3.73-22,9.43-29.23,11.26-14.08,3.57-31.63-25-44.05-36.95-19.61-18.89-30.49-11.27-30.49-11.27a10.5,10.5,0,0,1,5.63,9c22.53-3.38,38.85,41.7,56.7,47.17,15.32,4.7,25.56-8.63,43.51-12.69A15,15,0,0,0,343.68,114.79Z" fill="#c3c3c3"/><path d="M239.91,77.13a4.32,4.32,0,0,0-2.64.16c-1.23.56-1.34,2.45-1.34,2.45L220.76,90.22a4.75,4.75,0,0,0-5.24.56c-2.45,2.12-1.56,3.68-1.56,3.68s3-2.68,4.68-.78,2.79,4.68-.56,6.47a3.3,3.3,0,0,0,3.12,1.56c2.12-.22,3.57-3.57,3.57-5.24l16.51-7.92a3.29,3.29,0,0,0,3.31.35C246.27,88,246.34,79,239.91,77.13Z" fill="#383838"/><circle cx="204.49" cy="104.25" r="1.98" fill="#383838"/><path d="M197.34,106.52c2.58-1.71-52.26-2.9-72.29,25.91S148.09,139.19,197.34,106.52Z" fill="#00203f"/><path d="M176.26,112c-2.37,2.34-59,41.41-42.42,59.48s39.16-55.37,63.5-65" fill="#00203f"/><path d="M199,110c1-.78-18.64,10.28-16.28,21S191.44,115.66,199,110Z" fill="#00203f"/><path d="M176.26,101.73s-36.44-11.66-42.66-2.79S164.71,101.86,176.26,101.73Z" fill="#00203f"/><path d="M197.43,99.71s-19.47-12-18-5.39S197.43,99.71,197.43,99.71Z" fill="#00203f"/><path d="M173.55,101.19s-23.14-5.08-26.62-2.88S156.29,102.14,173.55,101.19Z" fill="#fff"/><path d="M195.54,99.19c.51,0-7.39-3.05-9.32-4.13s-3.67-1.24-3.31.55S192.84,99.19,195.54,99.19Z" fill="#fff"/><path d="M185.62,125.79c-2.26,7.85,1.29,1.66,2.1,0A85.51,85.51,0,0,1,195.49,113C192,116.08,187,121,185.62,125.79Z" fill="#fff"/><path d="M187.35,107.8c1.28-.43-25,2.67-24.84,6.88s9-1,3.44,3.25-23.8-.19-23.46,7.07,10,.46,12.41,4.34-10.35,14.35-5.57,20.67S172.17,112.86,187.35,107.8Z" fill="#fff"/><path d="M275.42,88.22c-1.47,0-2.62-1.25-3.87-1.88a8.45,8.45,0,0,0-3.4-1,1,1,0,0,0-.71,1.71,13.58,13.58,0,0,0,2.37,2c-.06,1.16.34,3.48-3,5.22-3.88,2,1.44,7.1,4.66,7.1s4.66-5.21,4.66-5.21V90A1,1,0,0,0,275.42,88.22Z" fill="#ffbcb1"/><path d="M236.49,92.37a2,2,0,0,0,1.75,1.56c1.49.19,2.47,1.56,1.56,2.27s1.3.39.78,2-1.75,1-1.23,2.08,1.23,1.95-.45,2.21-4.68-.78-5.33-2.21-.91-5.91.26-7.21A2.48,2.48,0,0,1,236.49,92.37Z" fill="#ffbcb1"/><path d="M239.54,92.24a2.05,2.05,0,0,0,.22,2.44c1,1.39,2,.94,2,.94v5.07a4.46,4.46,0,0,0,2.53-3.29c.45-2.49-.78-5.54-2-5.93S239.54,92.24,239.54,92.24Z" fill="#ffbcb1"/><path d="M83,194s-21.62.44-25.55-9.17,0-23.15,0-23.15l3.49,8.52s-4.15-9.17,0-17.69,4.48-14.85,4.48-14.85S67,145.51,66.8,149s-1.53-8.74,9.61-21,5.46-18.13,5.46-18.13a54.06,54.06,0,0,1,14.2,27.74l.87,8.3s2.4-9.61,1.09-14.41c0,0,6.55,12.46,3.93,20.31,0,0,8.74-6.77,9.39-14.2,0,0,4.59,15.94-2.18,29.92s4.37,1.31,5.68-5.68C114.84,161.89,125.33,197.27,83,194Z" fill="#f29d0f"/><path d="M83.83,188.32s-19.75,2.48-24.9-14.85l10,6.11s-6.2-16.48-4.59-27.52l5.24,5.46s-.44-7.86,2-14,14-14.06,14.22-21.4c0,0,5.87,11.79,7.18,24,0,0,3.06,7.64,3.49,6.77s2.62-7.21,2.62-7.21,1.31,12,1.53,15.94a16.45,16.45,0,0,0,7.86-9.61A65.67,65.67,0,0,1,105,168c-3.06,8.74-.44,13.1,1.09,11.57s5.68-6.55,5.68-6.55S112.66,189.63,83.83,188.32Z" fill="#f5d329"/><path d="M85.83,182S68.5,178.9,72.54,156.4l3.1-6.33s-.67,4.58,1.21,7.41a48.43,48.43,0,0,1,3.75,7.77s-8.65-3.46,5.23-27.31c0,0-1.41,8.32,1.82,11.77s1.07,13.83,1.07,13.83,4.61-4.55,4-6.74a56.18,56.18,0,0,1-.67,10.11s2.94-.19,4.37-3.94C96.45,163,97.23,178.55,85.83,182Z" fill="#f29d0f"/><path d="M178.67,258.79s-28.66.58-33.87-12.15,0-30.68,0-30.68l4.63,11.29s-5.5-12.16,0-23.45,5.93-19.68,5.93-19.68,2.17,10.42,1.88,15.05-2-11.58,12.74-27.79,7.24-24,7.24-24A71.65,71.65,0,0,1,196,184.12l1.16,11s3.18-12.74,1.45-19.1c0,0,8.68,16.51,5.21,26.93,0,0,11.58-9,12.45-18.82,0,0,6.08,21.13-2.89,39.66s5.79,1.74,7.53-7.53C220.93,216.25,234.83,263.14,178.67,258.79Z" fill="#f29d0f"/><path d="M179.83,251.27s-26.18,3.28-33-19.68l13.31,8.1s-8.21-21.85-6.08-36.48l6.95,7.24s-.58-10.42,2.61-18.53,18.55-18.64,18.85-28.37c0,0,7.78,15.63,9.51,31.84,0,0,4.05,10.13,4.63,9s3.47-9.55,3.47-9.55,1.74,15.92,2,21.13a21.81,21.81,0,0,0,10.42-12.74,87,87,0,0,1-4.63,21.13c-4.05,11.58-.58,17.37,1.45,15.34s7.53-8.68,7.53-8.68S218,253,179.83,251.27Z" fill="#f5d329"/><path d="M182.47,242.94s-23-4.14-17.61-34l4.11-8.4s-.89,6.07,1.61,9.82a64.18,64.18,0,0,1,5,10.29s-11.47-4.59,6.93-36.2c0,0-1.87,11,2.41,15.61s1.42,18.33,1.42,18.33,6.11-6,5.36-8.93c0,0,.18,8.57-.89,13.4,0,0,3.9-.26,5.79-5.22C196.55,217.68,197.59,238.32,182.47,242.94Z" fill="#f29d0f"/><path d="M307.89,65c-2.14-6.92-6-13.42-11.47-11.92-3.51,1-4.79,6.26-5.1,12.15A77.92,77.92,0,0,1,307.89,65Z" fill="#00203f"/><path d="M309.24,70.41c-.15-.78-.31-1.57-.51-2.38a73.2,73.2,0,0,0-17.47.17c0,.83,0,1.65,0,2.47A50.86,50.86,0,0,1,309.24,70.41Z" fill="#00203f"/><path d="M278.94,86.7a23.53,23.53,0,0,0-5.65,2.59c-4,3,.37,15,2.88,14.62.72-.09,3.21-.66,6.47-1.49A38.53,38.53,0,0,1,278.94,86.7Z" fill="#00203f"/><path d="M281.95,85.72a35.36,35.36,0,0,0,3.64,15.93l2.58-.69C285.59,96,284.84,90.54,284.33,85Z" fill="#00203f"/><path d="M291.44,73.68c.33,5.18,1,9.3,1,9.3s-2.22.49-5.18,1.26c.49,5.53,1.13,11,3.89,15.9,6.68-1.89,13.36-4.05,14.92-5.36,3.16-2.66,4.32-11.46,3.82-19.44,0-.55-.09-1.15-.16-1.78A47,47,0,0,0,291.44,73.68Z" fill="#00203f"/><path d="M281.95,85.72c-1,.31-2,.64-3,1a38.53,38.53,0,0,0,3.7,15.72l3-.76A35.36,35.36,0,0,1,281.95,85.72Z" fill="#fed929"/><path d="M284.33,85c.51,5.52,1.26,11,3.85,15.94l3-.83c-2.75-4.9-3.39-10.37-3.89-15.9C286.34,84.47,285.35,84.74,284.33,85Z" fill="#fed929"/><path d="M291.29,70.67c0,1,.08,2,.15,3a47,47,0,0,1,18.28-.13c-.11-1-.28-2-.48-3.14A50.86,50.86,0,0,0,291.29,70.67Z" fill="#fed929"/><path d="M308.73,68c-.24-1-.52-2-.84-3.06a77.92,77.92,0,0,0-16.56.23c-.05,1-.07,2-.07,3A73.2,73.2,0,0,1,308.73,68Z" fill="#fed929"/><path d="M304.09,197.16a1.52,1.52,0,0,0-.65.35c-4.38,3.89-13.57,4.78-18.63,2.12a1.51,1.51,0,0,0-.35-.13c.13,1.12.23,2.25.32,3.38,6,2.35,14.58,1.37,19.79-2.47C304.45,199.32,304.28,198.24,304.09,197.16Z" fill="#fed929"/><path d="M303.41,192.34a24.3,24.3,0,0,1-19.71,1.83c.19,1.09.35,2.19.5,3.29a27.22,27.22,0,0,0,19.61-2C303.64,194.45,303.49,193.4,303.41,192.34Z" fill="#fed929"/><path d="M269.45,178.86a20.23,20.23,0,0,1-18.16,2.38c.08,1.08.16,2.15.28,3.23a23.09,23.09,0,0,0,18.31-2.38Q269.67,180.47,269.45,178.86Z" fill="#fed929"/><path d="M268.61,173.62a22.92,22.92,0,0,1-18.06,1.47c.22,1.09.37,2.18.49,3.28a25.79,25.79,0,0,0,18.1-1.65Q268.9,175.17,268.61,173.62Z" fill="#fed929"/><path d="M282.64,102.42l20.61-6.33v10.43S285.52,104.41,282.64,102.42Z" fill="#1b717f" opacity="0.39"/></svg>