<svg xmlns="http://www.w3.org/2000/svg" xmlns:xlink="http://www.w3.org/1999/xlink" viewBox="0 0 400 300"><defs><linearGradient id="linear-gradient" x1="69.1" y1="196.4" x2="110.64" y2="160.39" gradientUnits="userSpaceOnUse"><stop offset="0" stop-color="#fff" stop-opacity="0"/><stop offset="0.99" stop-color="#9e005d"/></linearGradient><linearGradient id="linear-gradient-2" x1="156.77" y1="234.2" x2="197.26" y2="199.11" xlink:href="#linear-gradient"/><linearGradient id="linear-gradient-3" x1="229.9" y1="158.88" x2="253.84" y2="134.51" xlink:href="#linear-gradient"/></defs><title>191-200</title><g style="isolation:isolate"><g id="Layer_2" data-name="Layer 2"><path d="M372.2,138.43,236.6,59.57a6.41,6.41,0,0,0-6.41,0L27.4,175.62a6.41,6.41,0,0,0,0,11.12l129.68,74.87a20.93,20.93,0,0,0,20.93,0l194.2-112.08A6.41,6.41,0,0,0,372.2,138.43Z" fill="#ffb3a6"/><polyline points="125.26 174.82 76.18 203.83 48.19 187.43 92.11 160.36" opacity="0.32" fill="url(#linear-gradient)" style="mix-blend-mode:multiply"/><polyline points="204.82 219.21 164.26 241.71 136.27 225.31 194.48 193.53" opacity="0.32" fill="url(#linear-gradient-2)" style="mix-blend-mode:multiply"/><polyline points="290.41 130.21 241.33 159.22 213.34 142.81 257.26 115.75" opacity="0.32" fill="url(#linear-gradient-3)" style="mix-blend-mode:multiply"/><path d="M273.55,85.62S289.24,71.28,302,82.15c12.43,10.59,10.48,29,.32,39.55-10.73,11.14-24.9,15.4-39.91,17-2.8.3-21.23,2.16-20.71.93,0,0-10.94-19.72-8.58-47.37S248.4,57.62,264.34,62.8C275,66.27,278.28,78.05,273.55,85.62Z" fill="#af1414"/><path d="M266.86,82.17S282.95,69,297.07,78c13.75,8.8,11.81,24.15,3.18,36-9.12,12.49-22.58,18.64-37.23,22.24-2.74.67-20.3,5.81-22.24,2.93,0,0-11.67-17.25-13.08-45s18.16-34.7,29.18-32.63S270.52,74,266.86,82.17Z" fill="#e53030"/><path d="M88.85,103.23v8.13a7.67,7.67,0,0,1-2.13,3.9c-1.65,1.4-8.37,4.28-8.25,10.91.11,6-.13,46.36-.13,46.36H127V126.16s-1.48-6.94-6.38-10.27a12.7,12.7,0,0,1-3.09-2.3c-1.42-1.81-.7-4-.48-7.07a35.65,35.65,0,0,0-.17-4.08" fill="#603316"/><polyline points="86.72 94.5 86.72 102.88 119.86 102.88 119.86 94.5" fill="#dbdbdb"/><ellipse cx="103.29" cy="102.88" rx="16.57" ry="7.29" fill="#dbdbdb"/><ellipse cx="103.29" cy="94.5" rx="16.57" ry="7.29" fill="#ededed"/><ellipse cx="102.68" cy="171.85" rx="24.33" ry="9.33" fill="#603316"/><path d="M127,128.14c-.63.13-19.63,7-37.45,2.38v32s20.76,7.55,37.45-2.76Z" fill="#00203f"/><polygon points="142.47 43.26 142.47 91.55 159.34 81.21 159.34 33.97 142.47 43.26" fill="#00203f"/><polygon points="130.95 65.35 130.95 81.73 170.86 58.34 170.86 42.24 130.95 65.35" fill="#00203f"/><ellipse cx="241.17" cy="95.28" rx="6.38" ry="8.57" fill="#ededed"/><path d="M182.93,196s7.07-3.14,8.77-3.27,4.54.46,2.06,3.58c0,0-7.43,4.86-8.41,5s-3.36-.59-3.42-.34-.28,2.13-.28,2.13-6.21,2.37-6.49-1.79c0-.54.9-8.25.9-8.25" fill="#603316"/><path d="M174.83,177.82c1.23-8,3.48-15.73,4.41-23.81.59-5.09,1-10.2,1.64-15.28s2.52-10,3.74-15a.55.55,0,0,0-.25-.62c.06-.18.11-.35.17-.53.63-.6,1.27-1.17,1.89-1.71l8.69,5.85s-.05,5.32-.32,13c-1,4.49-1.78,8.5-2.92,12.76a1.12,1.12,0,0,1,.27,1A360.85,360.85,0,0,0,186,194.14a1.18,1.18,0,0,1-.78,1l-.24,2.1c-7.56,2.92-9.22-2.16-9.22-2.16s-.34-4.33-.77-10.34C174.81,182.44,174.78,180.13,174.83,177.82Z" fill="#34323d"/><path d="M198.4,207.65l4.2,1.5a2.31,2.31,0,0,0,1.7,1.55.93.93,0,0,0,.59.33,11,11,0,0,0,5-.81c2-.63,9.86-3.63,7.68,2-1.43,1-3,1.87-4.5,2.77-.82.5-1.65,1-2.5,1.47a5,5,0,0,1-1.47.68c-1.13.17-3.87-.68-3.94-.39s-.32,2.45-.32,2.45-7.15,2.73-7.46-2.06C197.32,216.52,198.4,207.65,198.4,207.65Z" fill="#603316"/><path d="M192.49,164.69c-.88-14.12-1.36-28.33-4.34-42.21-.13-3.61-2.47-1.3-2.31-2.73C187.11,108.13,204,122,204,122c.69.56.77,4.12.91,4.93q1.15,6.69,2,13.43c2.8,22.68,1.77,45.25.62,68-3.59,3.67-5.95,4.77-11.74,2.4-1.16-14.89-2.26-29.79-3.21-44.69Z" fill="#34323d"/><path d="M195.82,101.16a10.77,10.77,0,0,0,7.91,9.46c0,.44.13,3.12.18,3.56-5.09-1.22-8.84-7.61-9.37-13C194.46,100.34,195.74,100.35,195.82,101.16Z" fill="#34323d"/><path d="M209.31,115.1l-13.51-7.46.46-16.36c-2.86-.86-6.56-1.81-9.49-.77-3.33,1.19-4.1,6.22-4.55,9.21-.77,5.13-1,10.27-1.51,15.43l-1.91,20.63-1.53,16.59c-.08.85-1.3,6.5-.66,7.14,0,0,11.47,11.35,23.38,10.67a17.43,17.43,0,0,0,11.09-5Z" fill="#fff"/><path d="M240.19,90.32s-5.65,7.51-9.11,9.08l1.71,3.48,12.44-4.43S247.07,90.32,240.19,90.32Z" fill="#ccc9c6"/><path d="M243.72,95.86l-.35.19c1.27-1.13-.16-3.46-1.7-2.44l-.71.46a1.41,1.41,0,0,0-2.32-.38,35,35,0,0,1-4,3.94l.17-4.42c.07-1.76-2.42-1.94-2.95-.4a14.87,14.87,0,0,0-.4,3.71,5.25,5.25,0,0,1-1.73,3.45,1.32,1.32,0,0,0-.42,1.31l-.2,0c-1.71.17-1.89,2.61-.52,3-1.34.8-.54,3.23,1.17,2.72a68.29,68.29,0,0,0,13.67-5.67,1.39,1.39,0,0,0,.42-2.12l1.42-.75C246.93,97.53,245.42,94.93,243.72,95.86Z" fill="#fcbf81"/><path d="M195.8,89.53s10,12.26,15.29,12.26c3.8,0,15.89-5.12,19.77-5.8,3.62,3.07,3.86,8.44,1.61,12.54-11.57,5.64-23.3,12.36-29.24,9.42-7.18-3.56-17-16.92-17-16.92S179.09,94,195.8,89.53Z" fill="#fff"/><path d="M198.36,93.62l.82-6.6L191.06,87l.73,5.43A12.61,12.61,0,0,0,198.36,93.62Z" fill="#ffa85a"/><path d="M201.36,74.65c1.89-.78,2.55,15.08-1.36,16.78s-8.26-3.38-10.09-7.8S193,78.12,201.36,74.65Z" fill="#fcbf81"/><path d="M199.94,75.79s1.39,4.24-1.3,4.88-1.72,1.39-1.72,2.6a23,23,0,0,1,.12,5c-.31,2.73-1.62.54-2.07,1.85s-7.7-3.72-9.42-11,4.89-8.4,5.21-8.41,1.12-1.85,4.33-2.16,4,1,4,1a3.83,3.83,0,0,1,4.52,1c2.62,2.63,1.38,6.74-2.08,8.05Z" fill="#34323d"/><path d="M199.22,96.31l.78-3.79s-8.52-2.51-8.94-2.47-1.52,3.76-1.52,3.76S194.6,96.81,199.22,96.31Z" fill="#ededed"/><path d="M202.63,95.62a11.78,11.78,0,0,0-5.1-.82,28.19,28.19,0,0,1-3.31,0,6.2,6.2,0,0,1-2.68-.77q-2.5-1.28-.69-4.41c.58-.28.07-1.14-.5-.86-2.47,1.17-1.81,4.18,0,5.66,3.33,2.73,8.07.46,11.78,2.06C202.71,96.73,203.22,95.87,202.63,95.62Z" fill="#77777a"/><path d="M245.23,98.45l11.3,5.4s8.9-11.27,8.9-10.64-5.09,25.46-5.09,25.46l9.92-11.3,2.54,8.13,7.12-4.1,15.57,8.19" fill="none" stroke="#f2f2f2" stroke-miterlimit="10"/></g></g></svg>